<?xml version="1.0" standalone="no"?>
<!DOCTYPE svg PUBLIC "-//W3C//DTD SVG 20010904//EN"
 "http://www.w3.org/TR/2001/REC-SVG-20010904/DTD/svg10.dtd">
<svg version="1.0" xmlns="http://www.w3.org/2000/svg"
 width="623.000000pt" height="550.000000pt" viewBox="0 0 623.000000 550.000000"
 preserveAspectRatio="xMidYMid meet">

<g transform="translate(0.000000,550.000000) scale(0.100000,-0.100000)"
fill="#000000" stroke="none">
<path d="M2865 4936 c-179 -38 -258 -89 -337 -216 -52 -85 -69 -127 -93 -233
-18 -80 -21 -363 -5 -448 14 -75 15 -271 1 -354 -64 -381 -202 -588 -536 -810
-97 -64 -291 -168 -410 -220 -22 -9 -49 -21 -60 -26 -11 -5 -31 -10 -44 -11
-34 -4 -41 34 -30 170 4 59 8 116 8 128 1 17 -15 29 -79 58 -43 20 -86 36 -93
36 -21 0 -30 -15 -68 -107 -18 -46 -39 -83 -46 -83 -7 0 -13 3 -13 6 0 3 -11
47 -24 97 -68 263 -90 515 -62 734 7 58 9 108 4 115 -10 16 -72 -48 -104 -108
-11 -21 -64 -113 -116 -204 -52 -91 -115 -201 -138 -245 -24 -44 -57 -105 -73
-135 -28 -51 -31 -63 -31 -155 0 -86 3 -106 23 -145 40 -76 61 -98 241 -250
807 -682 780 -657 843 -778 48 -91 74 -175 82 -265 4 -42 12 -81 19 -86 36
-29 379 -106 626 -140 329 -46 823 -55 1160 -21 107 10 209 21 225 24 17 3 62
10 100 16 193 31 471 99 502 123 8 6 13 36 13 83 0 143 66 312 165 422 24 27
230 201 457 388 227 186 434 358 460 383 26 24 60 69 75 100 24 49 27 68 27
151 0 91 -2 98 -39 165 -21 39 -53 97 -70 130 -39 73 -65 119 -166 292 -43 75
-79 137 -79 139 0 2 -15 27 -34 56 -37 58 -73 95 -82 85 -4 -3 1 -66 10 -140
20 -164 20 -245 2 -408 -20 -179 -74 -431 -96 -444 -12 -7 -24 12 -59 100 -18
44 -42 98 -55 120 -29 49 -48 50 -131 3 -68 -39 -68 -38 -46 -161 15 -91 18
-254 4 -268 -19 -19 -293 107 -478 219 -371 226 -531 453 -596 852 -14 87 -14
272 1 350 5 29 10 128 10 220 0 145 -3 181 -24 264 -58 228 -187 365 -396 421
-83 22 -266 28 -345 11z m535 -836 c0 -22 -71 -103 -114 -129 -43 -27 -107
-28 -130 -2 -23 25 -14 41 42 74 26 15 62 37 80 49 37 23 89 37 110 30 6 -2
12 -12 12 -22z m-670 -15 c93 -30 169 -88 157 -120 -9 -23 -108 -20 -156 5
-47 24 -91 74 -91 104 0 26 9 38 24 33 6 -2 36 -12 66 -22z"/>
<path d="M1520 675 l0 -155 30 0 c26 0 30 4 30 27 0 14 7 35 16 45 16 17 18
16 52 -27 31 -40 39 -45 74 -45 l40 0 -52 66 -52 66 43 44 43 44 -36 0 c-27 0
-46 -9 -82 -41 l-46 -41 0 86 0 86 -30 0 -30 0 0 -155z"/>
<path d="M750 665 l0 -145 83 0 c99 0 157 23 187 72 27 45 26 106 -3 149 -35
53 -78 69 -179 69 l-88 0 0 -145z m197 64 c32 -31 32 -91 -2 -124 -19 -20 -34
-25 -75 -25 l-50 0 0 91 0 92 52 -6 c33 -4 60 -14 75 -28z"/>
<path d="M1910 665 l0 -145 35 0 c34 0 35 1 35 40 l0 40 40 0 c106 0 166 72
129 154 -18 39 -66 56 -158 56 l-81 0 0 -145z m154 85 c20 -7 26 -17 26 -38 0
-39 -17 -52 -67 -52 l-43 0 0 50 c0 49 1 50 29 50 16 0 41 -4 55 -10z"/>
<path d="M3650 664 l0 -146 93 4 c74 3 100 8 129 26 66 41 85 145 37 205 -32
42 -79 57 -173 57 l-86 0 0 -146z m185 72 c43 -28 46 -95 5 -136 -15 -15 -34
-20 -75 -20 l-55 0 0 83 c0 46 3 87 8 91 11 12 89 0 117 -18z"/>
<path d="M2460 765 c0 -16 -6 -25 -15 -25 -9 0 -15 -9 -15 -25 0 -14 6 -25 14
-25 9 0 15 -20 19 -67 4 -53 10 -71 27 -85 23 -19 75 -24 98 -10 20 13 3 40
-26 44 -25 3 -27 7 -30 61 -3 55 -2 57 23 57 20 0 25 5 25 25 0 20 -5 25 -25
25 -20 0 -25 5 -25 25 0 22 -4 25 -35 25 -31 0 -35 -3 -35 -25z"/>
<path d="M2640 766 c0 -15 -7 -26 -20 -29 -12 -3 -20 -14 -20 -26 0 -14 6 -21
20 -21 18 0 20 -7 20 -63 0 -53 4 -67 23 -85 25 -23 90 -31 102 -12 13 20 -5
48 -26 43 -28 -8 -39 12 -39 70 0 46 1 47 30 47 25 0 30 4 30 25 0 21 -5 25
-30 25 -25 0 -30 4 -30 25 0 21 -5 25 -30 25 -25 0 -30 -4 -30 -24z"/>
<path d="M4250 765 c0 -16 -6 -25 -15 -25 -9 0 -15 -9 -15 -25 0 -16 6 -25 15
-25 12 0 15 -13 15 -60 0 -51 4 -65 25 -85 25 -26 88 -35 100 -15 12 19 -5 47
-28 46 -20 -1 -22 4 -25 57 -3 55 -2 57 23 57 20 0 25 5 25 25 0 20 -5 25 -25
25 -20 0 -25 5 -25 25 0 22 -4 25 -35 25 -31 0 -35 -3 -35 -25z"/>
<path d="M4930 765 c0 -16 -6 -25 -15 -25 -9 0 -15 -9 -15 -25 0 -16 6 -25 15
-25 12 0 15 -13 15 -60 0 -51 4 -65 25 -85 25 -26 88 -35 100 -15 12 19 -5 47
-28 46 -20 -1 -22 4 -25 57 -3 55 -2 57 23 57 20 0 25 5 25 25 0 20 -5 25 -25
25 -20 0 -25 5 -25 25 0 22 -4 25 -35 25 -31 0 -35 -3 -35 -25z"/>
<path d="M1123 739 c-39 -12 -46 -21 -30 -43 10 -14 17 -15 45 -5 27 9 37 8
57 -5 38 -25 30 -36 -24 -36 -55 0 -101 -28 -101 -61 0 -50 79 -86 131 -59 13
7 19 7 19 0 0 -5 14 -10 30 -10 l30 0 0 84 c0 74 -3 88 -23 111 -25 30 -82 40
-134 24z m94 -135 c6 -18 -27 -45 -51 -42 -27 4 -35 44 -9 51 28 8 56 3 60 -9z"/>
<path d="M1428 734 c-16 -8 -28 -10 -28 -4 0 5 -13 10 -30 10 l-30 0 0 -111 0
-110 33 3 32 3 5 75 c5 74 5 75 38 85 26 7 32 14 32 37 0 31 -12 34 -52 12z"/>
<path d="M2233 739 c-33 -10 -40 -23 -25 -46 6 -9 17 -10 45 -2 41 11 77 -1
77 -26 0 -11 -12 -15 -48 -15 -60 0 -92 -21 -92 -61 0 -40 32 -69 76 -69 19 0
44 5 55 10 13 7 19 7 19 0 0 -5 14 -10 30 -10 l30 0 0 74 c0 95 -11 123 -55
141 -39 17 -65 18 -112 4z m97 -138 c0 -27 -26 -44 -55 -37 -46 12 -21 55 33
56 15 0 22 -6 22 -19z"/>
<path d="M2854 736 c-69 -30 -87 -120 -36 -177 33 -36 102 -50 152 -29 54 23
28 69 -28 48 -36 -14 -82 1 -82 27 0 12 15 15 80 15 74 0 80 2 80 20 0 37 -30
81 -65 96 -42 17 -61 17 -101 0z m88 -53 c29 -26 21 -33 -37 -33 -59 0 -68 10
-33 34 29 20 47 20 70 -1z"/>
<path d="M3165 741 c-11 -4 -39 -6 -63 -3 l-43 5 3 -109 3 -109 33 -3 32 -3 0
69 c0 72 16 102 53 102 12 0 17 9 17 30 0 32 -3 33 -35 21z"/>
<path d="M3328 736 c-16 -8 -28 -11 -28 -5 0 5 -13 9 -30 9 l-30 0 0 -110 0
-110 30 0 c30 0 30 0 30 58 0 68 17 106 48 110 41 6 52 -14 52 -94 l0 -74 35
0 35 0 0 70 c0 85 -19 136 -55 150 -36 14 -55 12 -87 -4z"/>
<path d="M4034 736 c-69 -30 -87 -120 -36 -177 24 -27 38 -33 83 -37 44 -3 59
0 79 16 23 19 23 22 10 36 -13 13 -21 14 -48 4 -27 -11 -37 -10 -59 2 -45 26
-32 35 55 38 74 3 82 5 82 23 0 36 -31 80 -65 95 -42 17 -61 17 -101 0z m88
-53 c29 -26 21 -33 -37 -33 -59 0 -64 4 -38 32 20 22 51 23 75 1z"/>
<path d="M4462 733 c-78 -38 -83 -148 -10 -193 40 -24 98 -26 140 -4 l31 16
-22 21 c-16 17 -23 19 -33 9 -24 -24 -98 -7 -98 23 0 12 16 15 80 15 l80 0 0
28 c0 37 -25 71 -66 88 -43 18 -61 17 -102 -3z m92 -49 c26 -26 18 -34 -34
-34 -37 0 -50 4 -50 15 0 32 58 45 84 19z"/>
<path d="M4743 743 c-30 -6 -71 -46 -79 -79 -20 -80 43 -149 129 -141 41 4 87
28 87 46 0 3 -9 12 -20 19 -17 10 -25 9 -45 -4 -34 -22 -70 -11 -83 25 -20 57
33 101 88 71 14 -8 26 -8 40 0 27 15 12 44 -31 59 -32 11 -46 12 -86 4z"/>
<path d="M5163 743 c-30 -6 -71 -46 -79 -79 -12 -46 7 -96 46 -122 29 -19 44
-23 84 -19 67 6 106 47 106 110 0 82 -65 128 -157 110z m83 -78 c20 -30 12
-70 -17 -86 -60 -32 -110 42 -66 99 17 22 65 14 83 -13z"/>
<path d="M5458 736 c-16 -8 -28 -11 -28 -5 0 5 -13 9 -30 9 l-30 0 0 -110 0
-110 30 0 29 0 3 73 c3 70 4 72 35 87 25 12 33 21 33 43 0 31 -4 32 -42 13z"/>
</g>
</svg>
