<?xml version="1.0" standalone="no"?>
<!DOCTYPE svg PUBLIC "-//W3C//DTD SVG 20010904//EN"
 "http://www.w3.org/TR/2001/REC-SVG-20010904/DTD/svg10.dtd">
<svg version="1.0" xmlns="http://www.w3.org/2000/svg"
 width="623.000000pt" height="550.000000pt" viewBox="0 0 623.000000 550.000000"
 preserveAspectRatio="xMidYMid meet">

<g transform="translate(0.000000,550.000000) scale(0.100000,-0.100000)"
fill="#000000" stroke="none">
<path d="M2865 4936 c-179 -38 -258 -89 -337 -216 -52 -85 -69 -127 -93 -233
-18 -80 -21 -363 -5 -448 14 -75 15 -271 1 -354 -64 -381 -202 -588 -536 -810
-97 -64 -291 -168 -410 -220 -22 -9 -49 -21 -60 -26 -11 -5 -31 -10 -44 -11
-34 -4 -41 34 -30 170 4 59 8 116 8 128 1 17 -15 29 -79 58 -43 20 -86 36 -93
36 -21 0 -30 -15 -68 -107 -18 -46 -39 -83 -46 -83 -7 0 -13 3 -13 6 0 3 -11
47 -24 97 -68 263 -90 515 -62 734 7 58 9 108 4 115 -10 16 -72 -48 -104 -108
-11 -21 -64 -113 -116 -204 -52 -91 -115 -201 -138 -245 -24 -44 -57 -105 -73
-135 -28 -51 -31 -63 -31 -155 0 -86 3 -106 23 -145 40 -76 61 -98 241 -250
807 -682 780 -657 843 -778 48 -91 74 -175 82 -265 4 -42 12 -81 19 -86 36
-29 379 -106 626 -140 329 -46 823 -55 1160 -21 107 10 209 21 225 24 17 3 62
10 100 16 193 31 471 99 502 123 8 6 13 36 13 83 0 143 66 312 165 422 24 27
230 201 457 388 227 186 434 358 460 383 26 24 60 69 75 100 24 49 27 68 27
151 0 91 -2 98 -39 165 -21 39 -53 97 -70 130 -39 73 -65 119 -166 292 -43 75
-79 137 -79 139 0 2 -15 27 -34 56 -37 58 -73 95 -82 85 -4 -3 1 -66 10 -140
20 -164 20 -245 2 -408 -20 -179 -74 -431 -96 -444 -12 -7 -24 12 -59 100 -18
44 -42 98 -55 120 -29 49 -48 50 -131 3 -68 -39 -68 -38 -46 -161 15 -91 18
-254 4 -268 -19 -19 -293 107 -478 219 -371 226 -531 453 -596 852 -14 87 -14
272 1 350 5 29 10 128 10 220 0 145 -3 181 -24 264 -58 228 -187 365 -396 421
-83 22 -266 28 -345 11z m535 -836 c0 -22 -71 -103 -114 -129 -43 -27 -107
-28 -130 -2 -23 25 -14 41 42 74 26 15 62 37 80 49 37 23 89 37 110 30 6 -2
12 -12 12 -22z m-670 -15 c93 -30 169 -88 157 -120 -9 -23 -108 -20 -156 5
-47 24 -91 74 -91 104 0 26 9 38 24 33 6 -2 36 -12 66 -22z"/>
</g>
</svg>
